<?xml version="1.0" encoding="UTF-8"?>
<!DOCTYPE svg PUBLIC "-//W3C//DTD SVG 1.1//EN" "http://www.w3.org/Graphics/SVG/1.1/DTD/svg11.dtd">
<!-- Creator: CorelDRAW X7 -->
<svg xmlns="http://www.w3.org/2000/svg" xml:space="preserve" width="0.279374in" height="0.349219in" version="1.1" style="shape-rendering:geometricPrecision; text-rendering:geometricPrecision; image-rendering:optimizeQuality; fill-rule:evenodd; clip-rule:evenodd"
viewBox="0 0 670 837"
 xmlns:xlink="http://www.w3.org/1999/xlink">
 <defs>
  <style type="text/css">
   <![CDATA[
    .fil1 {fill:#FEFEFE}
    .fil0 {fill:#141F38}
   ]]>
  </style>
 </defs>
 <g id="Layer_x0020_1">
  <metadata id="CorelCorpID_0Corel-Layer"/>
  <g id="_325704408">
   <path class="fil0" d="M565 63l-94 0c-10,-13 -25,-21 -42,-21l-35 0c-9,-25 -32,-42 -59,-42 -27,0 -50,17 -59,42l-35 0c-17,0 -32,8 -42,21l-94 0c-58,0 -105,47 -105,104l0 566c0,57 47,104 105,104l460 0c58,0 105,-47 105,-104l0 -566c0,-57 -47,-104 -105,-104l0 0zm-230 -21c12,0 21,9 21,21 0,11 -9,21 -21,21 -12,0 -21,-10 -21,-21 0,-12 9,-21 21,-21l0 0zm-59 42c9,25 32,42 59,42 27,0 50,-17 59,-42l35 0c6,0 11,4 11,10l0 63c0,6 -5,10 -11,10l-188 0c-6,0 -11,-4 -11,-10l0 -63c0,-6 5,-10 11,-10l35 0zm-118 584c-7,-4 -11,-11 -11,-19 0,-12 9,-21 20,-21 4,0 7,1 10,2l25 13 32 -48c4,-5 10,-9 17,-9 12,0 29,12 21,21 -20,25 -45,75 -63,79l-51 -18zm76 -219l-42 63c-4,5 -11,9 -18,9 -3,0 -6,-1 -9,-2l-42 -21c-7,-4 -11,-11 -11,-19 0,-11 9,-21 21,-21 3,0 6,1 9,2l25 13 32 -47c4,-6 10,-10 17,-10 12,0 21,10 21,21 0,4 -1,8 -3,12l0 0zm234 198l-133 0c-12,0 -21,-10 -21,-21 0,-12 9,-21 21,-21l167 0c12,0 21,9 21,21 0,11 -9,21 -21,21l-34 0zm34 -189l-167 0c-12,0 -21,-9 -21,-21 0,-11 9,-21 21,-21l167 0c12,0 21,10 21,21 0,12 -9,21 -21,21l0 0zm0 -188l-167 0c-12,0 -21,-10 -21,-21 0,-12 9,-21 21,-21l167 0c12,0 21,9 21,21 0,11 -9,21 -21,21z"/>
   <path class="fil1" d="M247 392l-189 0 189 0zm-31 -114l-42 63c-4,5 -10,9 -17,9 -3,0 -7,-1 -10,-2l-41 -21c-8,-4 -12,-11 -12,-19 0,-11 9,-21 21,-21 3,0 6,1 9,2l26 13 31 -47c4,-6 11,-10 18,-10 11,0 21,10 21,21 0,4 -2,8 -4,12l0 0z"/>
  </g>
 </g>
</svg>
